<svg data-name="Layer 1" xmlns="http://www.w3.org/2000/svg" width="64" height="64"><path d="M35.96 0a20.42 20.42 0 0 0-20 16 16 16 0 0 0-16 16 15.4 15.4 0 0 0 4.27 10.72A11.88 11.88 0 0 1 11.96 40a10.51 10.51 0 0 1 4.47 1 12 12 0 0 1 11.53-9 12.06 12.06 0 0 1 11.51 9 11.84 11.84 0 0 1 4.49-1 11.94 11.94 0 0 1 11 7.52 12.07 12.07 0 0 0 9-11.52c0-5.2-3.36-10.32-8-12v-4a20 20 0 0 0-20-20zm-9.27 40a4 4 0 0 0-2.73 4v16a4 4 0 1 0 8 0V44a4 4 0 0 0-4.71-4h-.56zm-16 8a4 4 0 0 0-2.73 4v8a4 4 0 1 0 8 0v-8a4 4 0 0 0-4.71-4h-.54zm32 0a4 4 0 0 0-2.73 4v8a4 4 0 1 0 8 0v-8a4 4 0 0 0-4.71-4h-.58z" fill="#d4953f"/></svg>